<svg xmlns="http://www.w3.org/2000/svg" width="1024" height="1024" viewBox="0 0 1024 1024" version="1.1"><g fill="grey"
     transform="rotate(45 50 100)" transform-origin="center">
<path d="M 482 359 L 482 412 519.848 412 L 557.697 412 558.248 359.750 C 558.552 331.012, 558.594 307.163, 558.341 306.750 C 558.089 306.337, 540.809 306, 519.941 306 L 482 306 482 359 M 960 1016 L 960 1024 976 1024 L 992 1024 992 1016 L 992 1008 976 1008 L 960 1008 960 1016" stroke="none" fill="#75bab9" fill-rule="evenodd"/><path d="M 405.173 416.250 C 405.268 506.038, 405.640 576.575, 406 573 C 406.360 569.425, 406.732 567.063, 406.827 567.750 C 406.922 568.438, 407.424 569, 407.943 569 C 408.461 569, 408.721 568.147, 408.520 567.105 C 408.229 565.594, 408.697 565.247, 410.828 565.395 L 413.500 565.579 413.661 535.040 C 413.749 518.243, 413.973 454.438, 414.157 393.250 L 414.492 282 421.746 282 L 429 282 429 267.500 L 429 253 417 253 L 405 253 405.173 416.250 M 559.340 271.250 C 559.699 280.738, 559.995 292.438, 559.997 297.250 L 560 306 573 306 L 586 306 586 362.515 L 586 419.030 573 418.402 L 560 417.773 560 430.387 L 560 443 533 443 L 506 443 506 492.500 L 506 542 533 542 L 560 542 560 614.500 L 560 687 584.473 687 L 608.947 687 609.223 672.250 L 609.500 657.500 622.913 657.220 L 636.326 656.940 635.663 605.805 C 635.298 577.682, 635 487.020, 635 404.336 L 635 254 596.843 254 L 558.685 254 559.340 271.250 M 665.475 328.500 C 665.475 369.750, 665.598 386.771, 665.750 366.324 C 665.901 345.877, 665.901 312.127, 665.750 291.324 C 665.599 270.521, 665.475 287.250, 665.475 328.500 M 453.625 629.125 C 453.281 630.844, 453 638.044, 453 645.125 L 453 658 442.250 657.999 L 431.500 657.997 431.800 672.999 L 432.100 688 456.050 688 L 480 688 480 657 L 480 626 467.125 626 L 454.250 626 453.625 629.125" stroke="none" fill="#b7caca" fill-rule="evenodd"/><path d="M 0 512 L 0 1024 480 1024 L 960 1024 960 1016 L 960 1008 991.958 1008 L 1023.916 1008 1024.257 1015.750 C 1024.444 1020.012, 1024.688 793.212, 1024.799 511.750 L 1025 0 512.500 0 L 0 0 0 512 M 0.496 512.500 C 0.496 794.100, 0.610 909.151, 0.750 768.168 C 0.890 627.186, 0.890 396.786, 0.750 256.168 C 0.610 115.551, 0.496 230.900, 0.496 512.500 M 505 34.973 L 505 61 492.500 61 L 480 61 480 88.500 L 480 116 466.500 116 L 453 116 453 130 L 453 144 441.500 144 L 430 144 430 164.971 L 430 185.942 416.750 186.221 L 403.500 186.500 403.237 219.750 L 402.973 253 389.487 253 L 376 253 376 329.335 C 376 371.320, 375.701 430.066, 375.336 459.883 L 374.672 514.094 361.586 513.935 L 348.500 513.776 348.222 527.388 L 347.944 541 332.972 541 L 318 541 318 557 L 318 573 304.500 573 L 291 573 290.909 576.250 C 290.767 581.306, 290.766 585.330, 290.887 654.250 L 291 719 304.500 719 L 318 719 318 729.526 L 318 740.052 333.250 739.776 L 348.500 739.500 348.767 714.250 L 349.034 689 363.017 689 L 377 689 377 674.500 L 377 660 390.500 660 L 404 660 404 674.500 L 404 689 417 689 L 430 689 430 725.972 L 430 762.944 416.250 763.222 L 402.500 763.500 402.223 778.250 L 401.947 793 390.173 793 C 374.464 793, 376 788.211, 376 837.200 L 376 879 362.607 879 C 346.352 879, 348.043 875.403, 348.415 909.183 L 348.715 936.500 363.358 936.777 L 378 937.053 378 923.556 L 378 910.058 391.250 909.779 L 404.500 909.500 404.777 894.750 L 405.053 880 417.527 880 L 430 880 430 907.972 L 430 935.944 416.250 936.222 L 402.500 936.500 402.500 973.500 L 402.500 1010.500 416.500 1010.500 L 430.500 1010.500 430.762 973.781 L 431.025 937.061 443.262 936.781 L 455.500 936.500 455.779 923.250 L 456.058 910 468.013 910 L 479.968 910 480.234 937.750 L 480.500 965.500 493.250 965.780 L 506 966.060 506 988.030 L 506 1010 533.500 1010 L 561 1010 561 988 L 561 966 586 966 L 611 966 611 951.500 L 611 937 599 937 L 587 937 587 923.500 L 587 910 599 910 L 611 910 611 895.500 L 611 881 623.500 881 L 636 881 636 895.500 L 636 910 649.933 910 C 666.463 910, 665.310 908.817, 664.838 925.288 L 664.517 936.500 678.259 936.778 L 692 937.056 692 908.028 L 692 879 679.011 879 L 666.021 879 665.761 836.250 L 665.500 793.500 651.776 793.222 L 638.052 792.944 637.776 777.722 L 637.500 762.500 623.750 762.222 L 610 761.944 610.002 746.722 C 610.004 738.350, 610.300 721.725, 610.661 709.778 L 611.317 688.056 624.408 687.778 L 637.500 687.500 637.778 673.750 L 638.056 660 651.028 660 L 664 660 664 673.875 L 664 687.750 667.125 688.375 C 668.844 688.719, 675.369 689, 681.625 689 L 693 689 693 714.500 L 693 740 707.500 740 L 722 740 722 729.240 L 722 718.480 736.250 718.490 L 750.500 718.500 750.756 645.250 L 751.013 572 737.006 572 L 723 572 723 557.107 C 723 539.420, 724.675 541, 705.918 541 L 692 541 692 527 L 692 513 678.422 513 L 664.845 513 665.575 383.500 L 666.305 254 652.153 254 L 638 254 638 220.500 L 638 187 624 187 L 610 187 610 165.500 L 610 144 598 144 L 586 144 586 130 L 586 116 573.516 116 L 561.032 116 560.766 88.750 L 560.500 61.500 547.767 61.220 L 535.034 60.940 534.767 35.220 L 534.500 9.500 519.750 9.223 L 505 8.947 505 34.973 M 429 267.346 L 429 282 421.746 282 L 414.492 282 414.157 393.250 C 413.973 454.438, 413.749 518.243, 413.661 535.040 L 413.500 565.579 410.828 565.395 C 408.697 565.247, 408.229 565.594, 408.520 567.105 C 408.925 569.208, 407.456 569.718, 406.662 567.750 C 406.385 567.063, 406.122 587.038, 406.079 612.140 L 406 657.780 429.500 657.887 L 453 657.995 453 645.123 C 453 638.043, 453.281 630.844, 453.625 629.125 L 454.250 626 467.125 626 L 480 626 480 584 L 480 542 493 542 L 506 542 506 492.500 L 506 443 493 443 L 480 443 480 430.500 L 480 418 467 418 L 454 418 454 361.500 L 454 305 467 305 L 480 305 480 291 L 480 277 519.500 277 L 559 277 559 265.500 L 559 254 506.750 253.996 C 478.012 253.994, 448.762 253.699, 441.750 253.342 L 429 252.691 429 267.346 M 456.343 756.660 C 456.704 765.823, 457 778.020, 457 783.766 L 457 794.212 468.750 793.856 L 480.500 793.500 480.779 806.750 L 481.058 820 494.029 820 L 507 820 507 836.500 L 507 853 520 853 L 533 853 533 836.500 L 533 820 546.500 820 L 560 820 560 807 C 560 797.328, 560.320 793.970, 561.250 793.884 C 561.938 793.820, 564.300 793.836, 566.500 793.918 C 568.700 794, 573.763 793.789, 577.750 793.448 L 585 792.829 585 766.415 L 585 740 572.500 740 L 560 740 560 751.500 L 560 763 520 763 L 480 763 480 751.500 L 480 740 467.843 740 L 455.686 740 456.343 756.660" stroke="none" fill="none" fill-rule="evenodd"/><path d="M 585.212 769.665 L 585 792.829 577.750 793.448 C 573.763 793.789, 568.700 794, 566.500 793.918 C 564.300 793.836, 561.938 793.820, 561.250 793.884 C 560.320 793.970, 560 797.328, 560 807 L 560 820 546.500 820 L 533 820 533 836.500 L 533 853 520 853 L 507 853 507 876.833 C 507 904.974, 505.123 901.566, 520.413 901.193 L 533 900.886 533 877.079 L 533 853.272 537.640 852.636 C 540.191 852.286, 546.255 852, 551.115 852 L 559.950 852 560.225 835.750 L 560.500 819.500 572.638 819.220 L 584.776 818.940 585.464 793.720 C 585.842 779.849, 585.988 763.550, 585.788 757.500 C 585.588 751.450, 585.329 756.924, 585.212 769.665 M 456.642 788 C 456.834 799.825, 456.993 819.288, 456.996 831.250 L 457 853 469.015 853 L 481.030 853 480.765 823.250 L 480.500 793.500 468.778 793.855 L 457.056 794.210 456.675 780.355 C 456.465 772.735, 456.451 776.175, 456.642 788" stroke="none" fill="#f6bf18" fill-rule="evenodd"/><path d="M 481.776 131.250 L 481.500 146.500 468.750 146.780 L 456 147.060 456 168.030 L 456 189 442.991 189 L 429.982 189 430.241 205.189 L 430.500 221.379 455.750 221.777 L 481 222.175 481 205.087 L 481 188 494 188 L 507 188 507 152 L 507 116 494.526 116 L 482.052 116 481.776 131.250 M 376.457 254.252 C 376.193 254.940, 376.100 273.503, 376.250 295.502 L 376.524 335.500 376.762 294.750 L 377 254 390.496 254 L 403.992 254 404.250 377.750 L 404.508 501.500 404.754 377.250 L 405 253 390.969 253 C 380.656 253, 376.810 253.332, 376.457 254.252 M 515.824 253.750 C 538.003 253.900, 574.003 253.900, 595.824 253.750 C 617.646 253.599, 599.500 253.476, 555.500 253.477 C 511.500 253.477, 493.646 253.600, 515.824 253.750 M 348 558 L 348 573 334 573 L 320 573 320 593 L 320 613 334.500 613 L 349 613 349 593.030 L 349 573.060 361.750 572.780 L 374.500 572.500 374.777 557.750 L 375.053 543 361.527 543 L 348 543 348 558 M 404.221 894.250 L 404.442 909.500 404.748 894.750 L 405.053 880 417.527 880 L 430 880 430.231 945.250 C 430.432 1001.901, 430.531 1005.690, 430.981 974 C 431.267 953.925, 431.374 924.337, 431.220 908.250 L 430.941 879 417.470 879 L 404 879 404.221 894.250 M 610 894.468 L 610 908.937 598.250 909.218 L 586.500 909.500 586.500 923.500 L 586.500 937.500 598.250 937.782 L 610 938.063 610 951.514 L 610 964.965 585.250 965.233 L 560.500 965.500 560.230 987.250 L 559.961 1009 533.500 1009 L 507.039 1009 506.749 987.250 L 506.459 965.500 506.229 987.750 L 506 1010 533.500 1010 L 561 1010 561 988 L 561 966 586.027 966 L 611.055 966 610.777 951.750 L 610.500 937.500 598.750 937.218 L 587 936.937 587 923.500 L 587 910.063 598.750 909.782 L 610.500 909.500 610.777 895.250 L 611.055 881 623.527 881 L 636 881 636 895.500 L 636 910 638.750 909.864 C 641.108 909.747, 641.179 909.666, 639.250 909.294 C 637.041 908.869, 637 908.600, 637 894.430 L 637 880 623.500 880 L 610 880 610 894.468 M 992 1016 L 992 1024 1008 1024 L 1024 1024 1024 1016 L 1024 1008 1008 1008 L 992 1008 992 1016" stroke="none" fill="#bc877e" fill-rule="evenodd"/><path d="M 507.009 70.750 C 507.087 74.463, 507.118 102.362, 507.076 132.750 L 507 188 494 188 L 481 188 481 205 L 481 222 545.524 222 L 610.048 222 609.774 205.250 L 609.500 188.500 596.750 188.220 L 584 187.940 584 166.970 L 584 146 581.750 145.940 C 580.513 145.907, 574.900 145.932, 569.278 145.995 L 559.056 146.110 558.778 131.805 L 558.500 117.500 545.750 117.220 L 533 116.940 533 90.470 L 533 64 519.933 64 L 506.866 64 507.009 70.750 M 691.136 539.750 C 691.002 541.960, 690.769 542, 678.140 542 L 665.281 542 665.390 599.750 L 665.500 657.500 679.250 657.778 L 693 658.056 693 672.528 L 693 687 705.250 687.014 C 711.987 687.021, 718.451 687.282, 719.612 687.594 L 721.725 688.161 722.236 615.831 C 722.517 576.049, 722.466 543.184, 722.124 542.797 C 721.781 542.410, 721.635 548.823, 721.800 557.047 L 722.100 572 707.550 572 L 693 572 693 557.044 L 693 542.088 699.750 541.713 L 706.500 541.338 699.284 541.419 C 692.834 541.491, 692.027 541.288, 691.671 539.500 C 691.318 537.729, 691.257 537.757, 691.136 539.750 M 318.605 565.500 C 318.820 578.150, 318.996 611.125, 318.998 638.777 L 319 689.053 333.750 688.777 L 348.500 688.500 348.776 673.250 L 349.052 658 362.026 658 L 375 658 375.002 615.250 L 375.004 572.500 362.002 572.806 L 349 573.111 349 593.056 L 349 613 334.500 613 L 320 613 319.875 595.250 C 319.807 585.487, 319.405 569.625, 318.983 560 C 318.238 543, 318.227 543.157, 318.605 565.500 M 507.763 646.750 C 507.618 687.313, 507.647 724.212, 507.826 728.750 L 508.152 737 520.576 737 L 533 737 533 655 L 533 573 520.513 573 L 508.025 573 507.763 646.750 M 559.667 717.667 C 559.300 718.033, 558.999 723.096, 558.998 728.917 L 558.997 739.500 572.498 739.196 L 586 738.892 586 779.446 L 586 820 572.867 820 L 559.735 820 560.117 836.250 L 560.500 852.500 546.750 852.778 L 533 853.056 533 877.528 L 533 902 520 902 L 507 902 507 885.662 C 507 876.676, 506.703 858.451, 506.340 845.162 L 505.680 821 493.840 821 L 482 821 482 837 L 482 853 469 853 L 456 853 455.770 807.500 C 455.643 782.475, 455.531 756.938, 455.520 750.750 L 455.500 739.500 468.282 739.500 L 481.065 739.500 480.782 729 L 480.500 718.500 455.750 718.233 L 431 717.965 431 740.983 L 431 764 417 764 L 403 764 403 779 L 403 794 390 794 L 377 794 377 837 L 377 880 363 880 L 349 880 349 908 L 349 936 363 936 L 377 936 377 922.500 L 377 909 390.500 909 L 404 909 404 894 L 404 879 417.500 879 L 431 879 431 907.500 L 431 936 443 936 L 455 936 455 922.470 L 455 908.940 467.750 909.220 L 480.500 909.500 480.766 937.220 L 481.032 964.940 493.766 965.220 L 506.500 965.500 506.770 987.250 L 507.039 1009 533.500 1009 L 559.961 1009 560.230 987.250 L 560.500 965.500 585.250 965.233 L 610 964.965 610 951.514 L 610 938.063 598.250 937.782 L 586.500 937.500 586.500 923.500 L 586.500 909.500 598.250 909.218 L 610 908.937 610 894.468 L 610 880 623.500 880 L 637 880 637 894.500 C 637 908.850, 637.023 909.001, 639.250 909.070 C 640.487 909.109, 646.675 909.221, 653 909.320 L 664.500 909.500 664.779 922.750 L 665.058 936 678.029 936 L 691 936 691 908.030 L 691 880.060 678.250 879.780 L 665.500 879.500 665.239 836.778 L 664.979 794.056 651.239 793.778 L 637.500 793.500 637.224 778.250 L 636.948 763 622.938 763 L 608.928 763 609.214 739.999 L 609.500 716.998 584.917 716.999 C 571.396 717, 560.033 717.300, 559.667 717.667 M 403 973.500 L 403 1010 416.500 1010 L 430 1010 430 973.500 L 430 937 416.500 937 L 403 937 403 973.500" stroke="none" fill="#ac2d1d" fill-rule="evenodd"/><path d="M 505.767 35.750 L 505.500 61.500 493.266 61.781 L 481.032 62.061 480.766 89.281 L 480.500 116.500 467.278 116.779 L 454.056 117.058 453.778 130.779 L 453.500 144.500 442.250 144.783 L 431 145.066 431 166.033 L 431 187 417.500 187 L 404 187 404 219.787 L 404 252.574 519.249 252.870 C 582.636 253.032, 634.551 253.240, 634.615 253.333 C 634.679 253.425, 635.022 308.400, 635.377 375.500 C 635.973 488.073, 636.139 551.453, 636.039 628.250 L 636 658 623 658 L 610 658 610 672.500 L 610 687 584.500 687 L 559 687 559 614.360 L 559 541.719 540.750 542.347 C 530.712 542.693, 513.165 542.981, 501.757 542.988 L 481.013 543 480.757 615.750 L 480.500 688.500 462.500 688.270 C 452.600 688.144, 441.462 688.031, 437.750 688.020 L 431 688 431 673.500 L 431 659 423.250 658.889 C 418.988 658.828, 413.250 658.715, 410.500 658.639 L 405.500 658.500 404.893 594 C 404.559 558.525, 404.222 467.513, 404.143 391.750 L 404 254 390.500 254 L 377 254 376.861 342.750 C 376.784 391.563, 376.446 450.175, 376.111 473 L 375.500 514.500 362.249 514.500 L 348.998 514.500 348.999 528.250 L 349 542 334.025 542 L 319.051 542 318.775 557.750 L 318.500 573.500 304.589 573.779 L 290.678 574.059 291.337 606.279 C 291.700 624.001, 291.997 656.374, 291.998 678.221 L 292 717.942 305.250 718.221 L 318.500 718.500 318.785 728.750 L 319.070 739 333.535 739 L 348 739 348 714 L 348 689 333.500 689 L 319 689 319 631.027 L 319 573.055 333.250 572.777 L 347.500 572.500 347.777 557.750 L 348.053 543 361.527 543 L 375 543 375 600.500 L 375 658 362 658 L 349 658 349 673 L 349 688 362.473 688 L 375.945 688 376.223 673.750 L 376.500 659.500 390.500 659.500 L 404.500 659.500 404.777 673.720 L 405.055 687.941 417.777 688.220 L 430.500 688.500 430.777 703.233 L 431.053 717.965 455.777 718.233 L 480.500 718.500 480.770 740.250 L 481.039 762 520 762 L 558.962 762 559.231 739.750 L 559.500 717.500 584.750 717.233 L 610 716.966 610 701.983 L 610 687 623.472 687 L 636.944 687 637.222 673.250 L 637.500 659.500 651.250 659.222 L 665 658.944 665 672.972 C 665 680.687, 665.112 687.067, 665.250 687.149 C 665.388 687.231, 671.800 687.569, 679.500 687.899 L 693.500 688.500 693.767 713.750 L 694.034 739 707.483 739 L 720.932 739 721.216 728.296 L 721.500 717.592 735.750 717.880 L 750 718.169 750 645.613 L 750 573.056 736.250 572.778 L 722.500 572.500 722 557.500 L 721.500 542.500 707.250 542.223 L 693 541.945 693 556.973 L 693 572 707.500 572 L 722 572 722 630.117 L 722 688.233 719.750 687.630 C 718.513 687.299, 711.987 687.021, 705.250 687.014 L 693 687 693 672.528 L 693 658.056 679.250 657.778 L 665.500 657.500 665.390 599.750 L 665.281 542 678.140 542 L 691 542 691 528.029 L 691 514.058 677.750 513.779 L 664.500 513.500 664.907 384.279 L 665.314 255.058 651.407 254.779 L 637.500 254.500 637.237 221.278 L 636.973 188.056 623.237 187.778 L 609.500 187.500 609.230 166.282 L 608.960 145.063 597.230 144.782 L 585.500 144.500 585.222 130.781 L 584.944 117.061 572.722 116.781 L 560.500 116.500 560.234 89.250 L 559.968 62 546.984 62 L 534 62 534 36 L 534 10 520.017 10 L 506.034 10 505.767 35.750 M 507.009 70.750 C 507.087 74.463, 507.118 86.162, 507.076 96.750 L 507 116 494.500 116 L 482 116 482 131 L 482 146 469.020 146 L 456.040 146 455.770 167.250 L 455.500 188.500 442.750 188.780 L 430 189.060 430 205.530 L 430 222 520.024 222 L 610.048 222 609.774 205.250 L 609.500 188.500 596.750 188.220 L 584 187.940 584 166.970 L 584 146 581.750 145.940 C 580.513 145.907, 574.900 145.932, 569.278 145.995 L 559.056 146.110 558.778 131.805 L 558.500 117.500 545.750 117.220 L 533 116.940 533 90.470 L 533 64 519.933 64 L 506.866 64 507.009 70.750 M 480.778 291.750 L 480.500 305.500 467.742 305.780 L 454.983 306.060 455.242 361.780 L 455.500 417.500 468 417.500 L 480.500 417.500 481 430 L 481.500 442.500 520.500 442.500 L 559.500 442.500 559.500 430.500 L 559.500 418.500 572.500 418 L 585.500 417.500 585.776 362.279 L 586.052 307.058 572.776 306.779 L 559.500 306.500 559.223 292.250 L 558.945 278 520.001 278 L 481.056 278 480.778 291.750 M 482.241 359.250 L 482.500 412.500 520.090 412.500 L 557.680 412.500 558.338 382 C 558.700 365.225, 558.997 341.262, 558.998 328.750 L 559 306 520.491 306 L 481.982 306 482.241 359.250 M 507.763 646.750 C 507.618 687.313, 507.647 724.212, 507.826 728.750 L 508.152 737 520.576 737 L 533 737 533 655 L 533 573 520.513 573 L 508.025 573 507.763 646.750" stroke="none" fill="#010001" fill-rule="evenodd"/>
</g></svg>